<svg xmlns="http://www.w3.org/2000/svg" xmlns:xlink="http://www.w3.org/1999/xlink" version="1.1" id="Layer_1" x="0px" y="0px" viewBox="0 0 21 42" xml:space="preserve">
    <style type="text/css">
    .st0{fill-rule:evenodd;clip-rule:evenodd;fill:#ffffff;}
    </style>
    <path class="st0" d="M18.7,40.3H2.7v-1.7h15.1h0.8V40.3z M2.8,37H1.9c-0.5,0-0.8,0.4-0.8,0.8v3.3c0,0.5,0.4,0.8,0.8,0.8h17.6  c0.5,0,0.8-0.4,0.8-0.8v-3.3c0-0.5-0.4-0.8-0.8-0.8h-3l0-0.5l0-1.5c-0.1-0.7-0.1-1.3-0.3-1.9c-0.7-2.7-1-5.4-1.2-8l0-3.6l0.3-3.7  c0.1,0,0.1,0.1,0.1,0.1c1.2,1.6,2.4,2.7,3.8,2.7c1.4,0,1.8-1.3,1.8-2.3c0-0.1,0-0.5-0.1-0.7c-0.5-1.3-1.4-2.6-2.4-3.8  c-0.3-0.4-0.8-0.8-1.1-1.2C17,12,17,11.3,16.8,10.7c-0.1-0.3-0.4-0.9-0.8-1c-0.3-0.2-0.7-0.3-1-0.5c-0.3-0.2-0.6-0.6-0.8-0.8  c-0.2-0.2-0.6-0.2-0.8-0.2c-0.7,0-0.9,0.5-1.6,1.2l0-0.1c0.8-0.9,1.1-2,1.3-2.9V5.4c0-0.3,0.7-1.3,0.7-2.2c0-2.1-2-3.2-3.6-3.2  C8.8,0,5.4,1,5,2.1C4.8,2.6,4.6,3.2,4.4,3.8c-0.1,0.3-0.3,1-0.3,1.4c0,0.3,0.2,1,0.4,1.3C4.7,6.6,4.9,6.8,5,7.1  c0.1,0.3,0.1,0.7,0.1,1c0,0.2,0.2,0.7,0.4,0.9c0.4,0.5,0.8,0.6,0.8,1.1c0,1-2.5,1.6-2.6,1.7c-0.7,0.1-1.6,0.8-2,1.5  c-0.2,0.4-0.4,0.9-0.5,1.3C1.2,15.1,1.1,15.5,1,16v1.8l-0.3,2.3v0.6l-0.7,4l0,1.9c0,0.1,0.1,2.7,0.3,4.1c0.1,0.8,0.6,1.7,1.2,2.4  c0.3,0.3,0.7,0.4,1,0.7c0.7,0.4,0.7,0.8,1.2,0.8c0.3,0,0.7-0.2,0.7-0.7c0-0.7-1.6-1.5-1.9-1.7C2.3,32,2.2,31.5,2,31.3  c-0.6-1.3-0.4-3.1-0.6-4.6l0-1.4c0-1.6,0.4-2,0.6-3.9c0.1-0.6,0.1-1.3,0.1-1.8c0.1-0.6,0.2-1.3,0.2-2v-0.8c0-1.1,0-2.4,1.2-3.5  c0.3-0.3,0.9-0.3,1.3-0.5c1.4-0.4,2.9-1.3,2.9-2.8c0-0.3-0.2-0.9-0.4-1.2c-0.2-0.3-0.8-0.7-0.8-1C6.4,7.7,6.4,7.4,6.4,7.1  C6.5,7.4,6.8,7.6,7,7.7c0.1,0.2,0.2,0.5,0.3,0.7c0.2,0.4,0.9,0.8,1.3,0.8c0.3,0,0.7-0.2,0.7-0.7c0-0.1,0-0.2-0.1-0.2  C9.1,7.7,8.4,7.8,8.3,7.3c0-0.3-0.1-0.8-0.4-0.9c-0.1,0-0.3,0-0.4-0.1C7.3,6.3,7.3,6.1,7.2,6C7.1,5.7,6.9,5.6,6.6,5.6  C6.3,5.6,6.1,5.9,6,6.2C5.9,5.9,5.7,5.7,5.5,5.5C5.4,5.4,5.4,5.2,5.4,5.2c0-0.5,0.7-2.4,0.8-2.5C6.8,2.1,9,1.4,10.1,1.4  c0.7,0,2.2,0.5,2.2,1.8c0,0.6-0.7,1.5-0.7,2.2v0.9C11.5,6.9,11.3,7.4,11,8c-0.2,0.2-0.4,0.4-0.5,0.6c-0.1,0.1-0.1,0.4-0.1,0.6  c0,0.6,0.2,1.8,1.2,1.8c0.6,0,1.3-0.7,1.8-1.4c0.3,0.4,0.8,0.7,1.1,0.9c0.2,0.2,0.6,0.2,0.8,0.4c0.4,0.4,0.4,1,0.5,1.5  c0.1,0.3,0.2,0.8,0.5,1.1c1.5,1.5,2.6,3.1,3.4,4.6v0.7c-0.1,0.4-0.2,0.5-0.5,0.5c-1.2,0-2.7-2.4-3.5-3.3c-0.1-0.1-0.2-0.2-0.3-0.2  c0.4-0.1,0.5-0.5,0.5-0.8c0-0.4,0-0.3-0.2-0.9c-0.3-1.2-1.6-1-2-2c-0.1-0.2-0.1-0.4-0.1-0.6c0-0.4-0.3-0.5-0.6-0.5  c-0.5,0-0.6,0.4-0.6,0.8c0,0.3,0,0.3,0.1,0.8c0.2,0.6,1,1.5,1.6,1.6c0.1,0,0.4,0.2,0.4,0.4c0.1,0.4,0.1,1.1,0.6,1.2  c-1.1,0.1-1,2.1-1.2,2.8c0,0.2,0,0.5-0.1,0.7c0,0.2,0,0.5-0.1,0.8c-0.1,0.5-0.1,1.1-0.2,1.7l0.1,3.3c0.2,2.9,0.5,5.8,1.3,8.8  c0.1,0.5,0.2,1.2,0.2,1.8l0,1.5h-2.3c-0.4-1.2-1.1-2.4-1.7-3.5c-0.2-0.4-0.6-1.5-1.3-1.5c-0.3,0-0.6,0.1-0.7,0.6l-0.1,3.5  C9.1,36.4,9,36.7,9,37H6.7c-0.4-1.6-1.1-4.4-1.4-6.1c-0.2-0.9-0.2-1-0.2-1.7c0-3.6,1.4-5,1.4-7.1c0-0.1-0.1-0.6-0.2-0.9  c-0.1-0.6-0.5-1.3-0.8-1.8c-0.3-0.5-0.5-1.1-1-1.1c-0.2,0-0.5,0.1-0.6,0.4c-0.5,1.5-1,3-1.3,4.6l0.3,2V26c-0.1,0.5-0.3,1-0.4,1.6  c-0.1,0.2-0.1,0.5-0.2,0.8v1c0,0.3,0.3,1.4,1,1.4c0.2,0,0.3-0.2,0.6-0.3L5.3,37H2.8z M11.4,37h-1c0-0.4,0.1-0.7,0.1-1.1  c0-0.7,0-0.7,0-0.8C10.8,35.8,11.1,36.4,11.4,37z M3.7,29.5c0-0.2-0.1-0.5-0.1-0.6c0-0.1,0.1-0.5,0.1-0.8V29.5z M5.1,22.1  c0,0.9-0.7,2.6-0.9,3.3c0-0.7-0.2-1.4-0.3-2l0.7-2.6C4.8,21.2,5.1,21.6,5.1,22.1z M10.2,22.9c0-0.5-0.4-0.7-0.9-0.7  c-0.4,0-0.8,0.1-0.8,0.7c0,0.5,0.3,0.7,0.8,0.7C9.7,23.5,10.2,23.5,10.2,22.9z M9,29c-0.2-0.5-1-1.6-1.6-1.6c-0.4,0-0.6,0.3-0.6,0.6  c0,0.6,0.7,0.8,1,1.5c0.1,0.2,0,0.5,0.1,0.8c0.1,0.4,0.4,1.3,1,1.5C9,31.9,9.2,32,9.3,32c0.3,0,0.7-0.2,0.7-0.7c0-1-1-0.2-1-1.6  C9.1,29.5,9.1,29.3,9,29z M6.8,16.6c0-0.5-0.4-0.6-0.9-0.6c-0.4,0-0.9,0-0.9,0.6c0,0.5,0.4,0.7,0.9,0.7C6.3,17.3,6.8,17.2,6.8,16.6z   M13,15.5c0-0.5-0.4-0.7-0.9-0.7c-0.4,0-0.8,0.1-0.8,0.7c0,0.5,0.4,0.7,0.8,0.7C12.5,16.2,13,16,13,15.5z"/>
</svg>